# xmcd
#
# Track frame offsets:
# 150
# 10865
# 28475
# 43210
# 55837
# 74370
# 105507
# 132702
# 153722
# 170790
# 187810
# 196895
# 212682
#
# Disc length: 3174 seconds
#
# Revision: 0
# Processed by: cddbd v1.4PL0 Copyright (c) Steve Scherf et al.
# Submitted via: Audion 3.0.2 (http://www.panic.com/audion/)
#
DISCID=c10c640d
DTITLE=Two Lone Swordsmen - Stay Down
DYEAR=1900
DGENRE=
TTITLE0=Hope we never surface
TTITLE1=ink cloud
TTITLE2=The big clapper
TTITLE3=ivy and lead
TTITLE4=we change the frequency
TTITLE5=gay spunk
TTITLE6=no red stopping
TTITLE7=sine bubbles
TTITLE8=mr. pariss monsteres
TTITLE9=light the last flare
TTITLE10=we discordians
TTITLE11=alpha school
TTITLE12=as worldly pleasures wve goodbye
EXTD=
EXTT0=
EXTT1=
EXTT2=
EXTT3=
EXTT4=
EXTT5=
EXTT6=
EXTT7=
EXTT8=
EXTT9=
EXTT10=
EXTT11=
EXTT12=
PLAYORDER=
